<?xml version="1.0" encoding="UTF-8" standalone="no" ?>
<!DOCTYPE svg PUBLIC "-//W3C//DTD SVG 1.1//EN" "http://www.w3.org/Graphics/SVG/1.1/DTD/svg11.dtd">
<svg xmlns="http://www.w3.org/2000/svg" xmlns:xlink="http://www.w3.org/1999/xlink" version="1.1" width="1080" height="1080" viewBox="0 0 1080 1080" xml:space="preserve">
<desc>Created with Fabric.js 5.2.4</desc>
<defs>
</defs>
<g transform="matrix(1 0 0 1 540 540)" id="7109a5ed-cb14-42e3-a88d-2eb1195a6fae"  >
</g>
<g transform="matrix(1 0 0 1 540 540)" id="bcd827a3-a51c-426e-b9ac-f99657fe96f7"  >
<rect style="stroke: none; stroke-width: 1; stroke-dasharray: none; stroke-linecap: butt; stroke-dashoffset: 0; stroke-linejoin: miter; stroke-miterlimit: 4; fill: rgb(255,255,255); fill-rule: nonzero; opacity: 1; visibility: hidden;" vector-effect="non-scaling-stroke"  x="-540" y="-540" rx="0" ry="0" width="1080" height="1080" />
</g>
<g transform="matrix(0 0 0 0 0 0)"  >
<g style=""   >
</g>
</g>
<g transform="matrix(83.08 0 0 83.08 540.02 540.02)"  >
<path style="stroke: rgb(255,255,255); stroke-width: 1; stroke-dasharray: none; stroke-linecap: butt; stroke-dashoffset: 0; stroke-linejoin: miter; stroke-miterlimit: 4; fill: none; fill-rule: nonzero; opacity: 1;"  transform=" translate(-6.5, -6.81)" d="M 4.38798 12.616 C 3.36313 12.2306 2.46328 11.5721 1.78592 10.7118 C 1.10856 9.85153 0.679515 8.82231 0.545268 7.73564 C 0.411022 6.64897 0.576691 5.54628 1.02433 4.54704 C 1.47197 3.54779 2.1845 2.69009 3.08475 2.06684 C 3.98499 1.4436 5.03862 1.07858 6.13148 1.01133 C 7.22435 0.944078 8.31478 1.17716 9.28464 1.68533 C 10.2545 2.19349 11.0668 2.95736 11.6336 3.89419 C 12.2004 4.83101 12.5 5.90507 12.5 7" stroke-linecap="round" />
</g>
<g transform="matrix(0 0 0 0 0 0)"  >
<g style=""   >
</g>
</g>
<g transform="matrix(83.08 0 0 83.08 540.02 524.57)"  >
<path style="stroke: rgb(255,255,255); stroke-width: 1; stroke-dasharray: none; stroke-linecap: butt; stroke-dashoffset: 0; stroke-linejoin: miter; stroke-miterlimit: 4; fill: none; fill-rule: nonzero; opacity: 1;"  transform=" translate(-6.5, -6.81)" d="M 4.38798 12.616 C 3.36313 12.2306 2.46328 11.5721 1.78592 10.7118 C 1.10856 9.85153 0.679515 8.82231 0.545268 7.73564 C 0.411022 6.64897 0.576691 5.54628 1.02433 4.54704 C 1.47197 3.54779 2.1845 2.69009 3.08475 2.06684 C 3.98499 1.4436 5.03862 1.07858 6.13148 1.01133 C 7.22435 0.944078 8.31478 1.17716 9.28464 1.68533 C 10.2545 2.19349 11.0668 2.95736 11.6336 3.89419 C 12.2004 4.83101 12.5 5.90507 12.5 7" stroke-linecap="round" />
</g>
</svg>